<?xml version="1.0" encoding="UTF-8" standalone="no"?>
<svg
   xmlns:dc="http://purl.org/dc/elements/1.1/"
   xmlns:cc="http://creativecommons.org/ns#"
   xmlns:rdf="http://www.w3.org/1999/02/22-rdf-syntax-ns#"
   xmlns:svg="http://www.w3.org/2000/svg"
   xmlns="http://www.w3.org/2000/svg"
   version="1.1"
   id="svg2"
   height="600"
   width="900"
   viewBox="0 0 45 30">
  <metadata
     id="metadata21">
    <rdf:RDF>
      <cc:Work
         rdf:about="">
        <dc:format>image/svg+xml</dc:format>
        <dc:type
           rdf:resource="http://purl.org/dc/dcmitype/StillImage" />
        <dc:title></dc:title>
      </cc:Work>
    </rdf:RDF>
  </metadata>
  <defs
     id="defs19" />
  <clipPath
     id="t">
    <path
       id="path5"
       d="m 30,15 30,0 0,15 z m 0,0 0,15 -30,0 z M 30,15 0,15 0,0 Z m 0,0 0,-15 30,0 z" />
  </clipPath>
  <g
     id="g3452">
    <path
       d="M 0,0 0,30 45,30 45,0 Z"
       id="path7"
       style="fill:#00247d" />
    <path
       style="color:#000000;font-style:normal;font-variant:normal;font-weight:normal;font-stretch:normal;font-size:medium;line-height:normal;font-family:sans-serif;text-indent:0;text-align:start;text-decoration:none;text-decoration-line:none;text-decoration-style:solid;text-decoration-color:#000000;letter-spacing:normal;word-spacing:normal;text-transform:none;direction:ltr;block-progression:tb;writing-mode:lr-tb;baseline-shift:baseline;text-anchor:start;white-space:normal;clip-rule:nonzero;display:inline;overflow:visible;visibility:visible;opacity:1;isolation:auto;mix-blend-mode:normal;color-interpolation:sRGB;color-interpolation-filters:linearRGB;solid-color:#000000;solid-opacity:1;fill:#ffffff;fill-opacity:1;fill-rule:nonzero;stroke:none;stroke-width:5.19615269;stroke-linecap:butt;stroke-linejoin:miter;stroke-miterlimit:4;stroke-dasharray:none;stroke-dashoffset:0;stroke-opacity:1;color-rendering:auto;image-rendering:auto;shape-rendering:auto;text-rendering:auto;enable-background:accumulate"
       d="M 0,0 0,62.460938 356.32812,300 0,537.53906 0,600 93.691406,600 450,362.46094 806.30859,600 900,600 900,537.53906 543.67188,300 900,62.460938 900,0 806.30859,0 450,237.53906 93.691406,0 0,0 Z"
       transform="scale(0.05,0.05)"
       id="path9" />
    <path
       d="M 0,0 60,30 M 60,0 0,30"
       clip-path="url(#t)"
       id="path11"
       style="stroke:#cf142b;stroke-width:4"
       transform="scale(0.75000001,0.99999999)" />
    <path
       d="m 22.500001,0 0,30 M 0,15.000001 l 45,0"
       id="path13"
       style="stroke:#ffffff;stroke-width:8.66025448" />
    <path
       d="m 22.500001,0 0,30 M 0,15.000001 l 45,0"
       id="path15"
       style="stroke:#cf142b;stroke-width:5.19615269" />
  </g>
</svg>
