<?xml version="1.0" encoding="UTF-8" standalone="no"?>
<svg
   xmlns:dc="http://purl.org/dc/elements/1.1/"
   xmlns:cc="http://creativecommons.org/ns#"
   xmlns:rdf="http://www.w3.org/1999/02/22-rdf-syntax-ns#"
   xmlns:svg="http://www.w3.org/2000/svg"
   xmlns="http://www.w3.org/2000/svg"
   xmlns:sodipodi="http://sodipodi.sourceforge.net/DTD/sodipodi-0.dtd"
   xmlns:inkscape="http://www.inkscape.org/namespaces/inkscape"
   viewBox="0 0 45 30"
   width="900"
   height="600"
   id="svg2"
   version="1.1"
   inkscape:version="0.91 r13725"
   sodipodi:docname="Flag_of_the_United_Kingdom inkscapesvg.svg">
  <metadata
     id="metadata21">
    <rdf:RDF>
      <cc:Work
         rdf:about="">
        <dc:format>image/svg+xml</dc:format>
        <dc:type
           rdf:resource="http://purl.org/dc/dcmitype/StillImage" />
        <dc:title></dc:title>
      </cc:Work>
    </rdf:RDF>
  </metadata>
  <defs
     id="defs19" />
  <sodipodi:namedview
     pagecolor="#ffffff"
     bordercolor="#666666"
     borderopacity="1"
     objecttolerance="10"
     gridtolerance="10"
     guidetolerance="10"
     inkscape:pageopacity="0"
     inkscape:pageshadow="2"
     inkscape:window-width="1920"
     inkscape:window-height="1023"
     id="namedview17"
     showgrid="false"
     inkscape:snap-page="true"
     inkscape:object-nodes="true"
     inkscape:zoom="0.5"
     inkscape:cx="450.00001"
     inkscape:cy="300"
     inkscape:window-x="0"
     inkscape:window-y="0"
     inkscape:window-maximized="1"
     inkscape:current-layer="svg2" />
  <clipPath
     id="t">
    <path
       d="m 30,15 30,0 0,15 z m 0,0 0,15 -30,0 z M 30,15 0,15 0,0 Z m 0,0 0,-15 30,0 z"
       id="path5"
       inkscape:connector-curvature="0" />
  </clipPath>
  <g
     id="g3452">
    <path
       style="fill:#00247d"
       inkscape:connector-curvature="0"
       id="path7"
       d="M 0,0 0,30 45,30 45,0 Z" />
    <path
       id="path9"
       transform="scale(0.05,0.05)"
       d="M 0,0 0,62.460938 356.32812,300 0,537.53906 0,600 93.691406,600 450,362.46094 806.30859,600 900,600 900,537.53906 543.67188,300 900,62.460938 900,0 806.30859,0 450,237.53906 93.691406,0 0,0 Z"
       style="color:#000000;font-style:normal;font-variant:normal;font-weight:normal;font-stretch:normal;font-size:medium;line-height:normal;font-family:sans-serif;text-indent:0;text-align:start;text-decoration:none;text-decoration-line:none;text-decoration-style:solid;text-decoration-color:#000000;letter-spacing:normal;word-spacing:normal;text-transform:none;direction:ltr;block-progression:tb;writing-mode:lr-tb;baseline-shift:baseline;text-anchor:start;white-space:normal;clip-rule:nonzero;display:inline;overflow:visible;visibility:visible;opacity:1;isolation:auto;mix-blend-mode:normal;color-interpolation:sRGB;color-interpolation-filters:linearRGB;solid-color:#000000;solid-opacity:1;fill:#ffffff;fill-opacity:1;fill-rule:nonzero;stroke:none;stroke-width:5.19615269;stroke-linecap:butt;stroke-linejoin:miter;stroke-miterlimit:4;stroke-dasharray:none;stroke-dashoffset:0;stroke-opacity:1;color-rendering:auto;image-rendering:auto;shape-rendering:auto;text-rendering:auto;enable-background:accumulate"
       inkscape:connector-curvature="0" />
    <path
       transform="scale(0.75000001,0.99999999)"
       style="stroke:#cf142b;stroke-width:4"
       inkscape:connector-curvature="0"
       id="path11"
       clip-path="url(#t)"
       d="M 0,0 60,30 M 60,0 0,30" />
    <path
       style="stroke:#ffffff;stroke-width:8.66025448"
       inkscape:connector-curvature="0"
       id="path13"
       d="m 22.500001,0 0,30 M 0,15.000001 l 45,0" />
    <path
       style="stroke:#cf142b;stroke-width:5.19615269"
       inkscape:connector-curvature="0"
       id="path15"
       d="m 22.500001,0 0,30 M 0,15.000001 l 45,0" />
  </g>
</svg>
